<svg width="78" height="113" viewBox="0 0 78 113" fill="none" xmlns="http://www.w3.org/2000/svg">
<path d="M72.2051 0.5V16.4795L72.1045 16.6133L50.3779 45.376C58.2409 47.3256 64.546 51.0643 69.2666 56.6025C74.2506 62.2228 76.7363 69.115 76.7363 77.2461C76.7362 88.3072 72.989 97.0469 65.4678 103.404C58.0743 109.742 48.8928 112.9 37.957 112.9C29.338 112.9 21.6968 110.954 15.0488 107.05L15.0439 107.047C8.38476 103.03 3.62487 97.3174 0.773438 89.9248L0.620117 89.5273L0.989258 89.3125L16.3008 80.4072L16.8262 80.1016L17.0244 80.6768C18.6089 85.2769 21.1391 88.6944 24.5996 90.9678C28.0647 93.2441 32.5059 94.4014 37.957 94.4014C43.9313 94.4013 48.6413 92.955 52.1396 90.1133L52.4746 89.834C55.9961 86.7118 57.7685 82.534 57.7686 77.2461C57.7686 71.9548 55.9944 67.8305 52.4746 64.8135C48.944 61.7873 44.1239 60.2471 37.957 60.2471H33.627L33.4785 60.0244L26.292 49.2432L26.0938 48.9473L26.3096 48.6641L49.293 18.374H4.02148V0.5H72.2051Z" stroke="#334FAA"/>
</svg>
