<svg width="79" height="113" viewBox="0 0 79 113" fill="none" xmlns="http://www.w3.org/2000/svg">
<path d="M63.6602 0.5L63.1289 1.28125L38.6621 37.2168H39.748C51.3124 37.2168 60.7142 40.7418 67.9043 47.8232C75.2014 54.8031 78.8398 63.8977 78.8398 75.0586C78.8398 86.1167 75.2009 95.2591 67.9102 102.444L67.9043 102.449C60.6109 109.426 51.2106 112.9 39.748 112.9C28.1827 112.9 18.7289 109.426 11.4346 102.449L11.4297 102.444C4.1388 95.2591 0.500054 86.1168 0.5 75.0586C0.5 66.6331 2.71364 59.1891 7.15039 52.7451L41.9805 0.5H63.6602ZM39.748 55.2471C33.6059 55.2471 28.6869 57.0862 24.9414 60.7305C21.3054 64.2655 19.4678 69.0226 19.4678 75.0586C19.4678 81.0932 21.3045 85.9051 24.9443 89.5459C28.6881 93.0831 33.6065 94.8701 39.748 94.8701C45.6806 94.8701 50.499 93.0835 54.2471 89.5381C57.9868 85.8968 59.872 81.0874 59.8721 75.0586C59.8721 69.0269 57.985 64.2713 54.2471 60.7354L54.2422 60.7305C50.4935 57.0831 45.6765 55.2471 39.748 55.2471Z" stroke="#334FAA"/>
</svg>
