<svg width="78" height="113" viewBox="0 0 78 113" fill="none" xmlns="http://www.w3.org/2000/svg">
<path d="M72.5117 0.5V18.374H28.1025L26.3037 41.748H39.5137C50.0363 41.7481 58.956 44.908 66.2422 51.2422H66.2432C73.5593 57.498 77.1992 66.1885 77.1992 77.2461C77.1991 88.3072 73.4519 97.0469 65.9307 103.404C58.5372 109.742 49.3556 112.9 38.4199 112.9C29.4873 112.9 21.6855 110.849 15.0332 106.731C8.37336 102.609 3.61622 96.7384 0.766602 89.1396L0.617188 88.7422L0.985352 88.5303L16.4531 79.625L16.9971 79.3115L17.1807 79.9121C18.6641 84.7715 21.1701 88.3787 24.6797 90.7773C28.194 93.1792 32.7613 94.4014 38.4199 94.4014C44.4802 94.4013 49.2493 92.8614 52.7812 89.834C56.4087 86.7098 58.2314 82.5317 58.2314 77.2461C58.2314 72.0624 56.4597 67.9887 52.9375 64.9697L52.9307 64.9648V64.9639C49.3971 61.8344 44.6817 60.2471 38.7324 60.2471H6.32227L6.36035 59.7109L10.5791 0.963867L10.6123 0.5H72.5117Z" stroke="#334FAA"/>
</svg>
