<svg width="74" height="113" viewBox="0 0 74 113" fill="none" xmlns="http://www.w3.org/2000/svg">
<path d="M36.5996 0.5C46.4001 0.500006 54.7497 3.55985 61.6182 9.68848L61.6191 9.68945C68.6129 15.9416 72.0976 24.3127 72.0977 34.748C72.0977 45.9796 65.7965 57.974 53.3633 70.7207L53.3584 70.7246L29.5254 94.5576H74.1289V112.9H1.10156V98.1338L1.24414 97.9883L39.3672 59.084L39.3711 59.0811C48.6251 49.8271 53.1299 41.9314 53.1299 35.373C53.1299 30.2716 51.6031 26.2977 48.5947 23.3896C45.5773 20.4728 41.6468 18.999 36.7559 18.999C32.259 18.999 28.3739 20.1088 25.0811 22.3125C21.7855 24.518 19.0522 27.8401 16.8945 32.3096L16.6592 32.7979L16.1914 32.5234L1.03613 23.6172L0.644531 23.3877L0.835938 22.9756C4.20636 15.7083 9.06027 10.1611 15.4004 6.35547L15.9971 5.99512C22.1763 2.33053 29.0476 0.5 36.5996 0.5Z" stroke="#334FAA"/>
</svg>
