<svg width="87" height="51" viewBox="0 0 87 51" fill="none" xmlns="http://www.w3.org/2000/svg">
<path d="M25.3825 11.1278V14.8746H15.6681V32.618H11.123V11.1325H25.3825V11.1278Z" fill="#1D1D1B"/>
<path d="M46.563 11.1278V32.6133H42.0743V14.8183H33.3881V32.6133H28.8994V11.1278H46.5677H46.563Z" fill="#1D1D1B"/>
<path d="M50.8965 32.6133V11.1278H55.2631V28.9651H64.2028V11.1278H68.6211V32.6133H50.9012H50.8965ZM71.5979 28.9839L71.3349 35.7122H67.0106V32.6133H65.4987V28.9839H71.5932H71.5979Z" fill="#1D1D1B"/>
<path d="M1.93445 41.8066V1.93444H77.7394V36.8672H79.6738V0H0V43.741H74.4762V41.8066H1.93445Z" fill="#1D1D1B"/>
<path d="M86.6328 41.8066H77.4395V50.9999H86.6328V41.8066Z" fill="#2E4B9B"/>
</svg>
