<svg width="16" height="16" viewBox="0 0 16 16" fill="none" xmlns="http://www.w3.org/2000/svg">
<path d="M8.37305 11.5741C7.80639 12.1407 7.20639 12.6741 6.63972 13.2407C6.43972 13.4407 6.20639 13.5407 5.93972 13.5407C5.73972 13.5407 5.63972 13.4407 5.57305 13.2741C5.13972 11.9407 4.70639 10.5741 4.27305 9.24074C4.23972 9.10741 4.17305 9.04074 4.03972 9.00741C3.00639 8.67407 1.97305 8.34074 0.973054 8.00741C0.806387 7.94074 0.673054 7.90741 0.506387 7.80741C0.306387 7.67407 0.273054 7.44074 0.439721 7.27407C0.606387 7.10741 0.806387 6.97407 1.03972 6.90741C2.30639 6.40741 3.53972 5.94074 4.80639 5.44074C8.00639 4.20741 11.2064 2.97407 14.4064 1.74074C15.0064 1.50741 15.4731 1.84074 15.4064 2.50741C15.3731 2.94074 15.2731 3.34074 15.1731 3.74074C14.4731 7.00741 13.7731 10.2741 13.1064 13.5407C12.9397 14.3074 12.4064 14.5074 11.7731 14.0407C10.7064 13.2407 9.63972 12.4741 8.57305 11.6741C8.47305 11.6407 8.43972 11.6074 8.37305 11.5741ZM5.97305 12.5741H6.00639C6.00639 12.5407 6.00639 12.5074 6.03972 12.4741C6.10639 11.7407 6.17305 11.0074 6.23972 10.2407C6.23972 10.0741 6.30639 9.97407 6.43972 9.84074C7.43972 8.97407 8.40639 8.07407 9.37305 7.17407C10.4731 6.20741 11.5397 5.20741 12.6397 4.24074C12.6731 4.20741 12.7064 4.07407 12.7731 4.00741C12.6731 4.00741 12.5731 3.94074 12.4731 3.97407C12.3397 4.00741 12.2064 4.07407 12.1064 4.14074C9.70639 5.67407 7.30639 7.17407 4.90639 8.67407C4.77305 8.77407 4.73972 8.84074 4.80639 8.97407C4.97305 9.47407 5.13972 10.0074 5.30639 10.5074C5.50639 11.2074 5.73972 11.8741 5.97305 12.5741Z" fill="#2B3843"/>
</svg>
