<svg width="16" height="16" viewBox="0 0 16 16" fill="none" xmlns="http://www.w3.org/2000/svg">
<g clip-path="url(#clip0_11958_214)">
<path d="M8.14458 15.5676C6.74699 15.5676 5.49398 15.2312 4.33735 14.6066L0 16L1.39759 11.8198C0.674699 10.6667 0.289157 9.27327 0.289157 7.78378C0.289157 3.45946 3.80723 0 8.14458 0C12.4819 0 16 3.45946 16 7.78378C16 12.1081 12.4819 15.5676 8.14458 15.5676ZM12.1446 9.56156C12.0964 9.46547 11.9518 9.41742 11.759 9.32132C11.5663 9.22523 10.6024 8.74475 10.4578 8.6967C10.2651 8.64865 10.1205 8.64865 10.0241 8.84084C9.87952 9.03303 9.54217 9.46547 9.39759 9.60961C9.3012 9.75375 9.15663 9.75375 8.96386 9.65766C8.77108 9.56156 8.14458 9.36937 7.42169 8.6967C6.84337 8.16817 6.45783 7.59159 6.36145 7.3994C6.26506 7.20721 6.36145 7.11111 6.45783 7.01502C6.55422 6.91892 6.6506 6.77478 6.74699 6.67868C6.84337 6.58258 6.89157 6.48649 6.93976 6.34234C6.98795 6.1982 6.98795 6.1021 6.93976 6.00601C6.89157 5.90991 6.50602 4.94895 6.36145 4.61261C6.21687 4.22823 6.0241 4.27628 5.92771 4.27628C5.83133 4.27628 5.68675 4.27628 5.54217 4.27628C5.39759 4.27628 5.20482 4.32432 5.01205 4.51652C4.81928 4.66066 4.33735 5.14114 4.33735 6.05405C4.33735 7.01502 5.01205 7.87988 5.10843 8.02402C5.20482 8.16817 6.45783 10.1381 8.38554 10.9069C10.3614 11.6757 10.3614 11.4354 10.6988 11.3874C11.0361 11.3393 11.8554 10.9069 12 10.4745C12.1928 10.042 12.1928 9.65766 12.1446 9.56156Z" fill="#2B3843"/>
</g>
<defs>
<clipPath id="clip0_11958_214">
<rect width="16" height="16" fill="white"/>
</clipPath>
</defs>
</svg>
